<svg id="svg" xmlns="http://www.w3.org/2000/svg" xmlns:xlink="http://www.w3.org/1999/xlink" width="400" height="347.66666666666663" viewBox="0, 0, 400,347.66666666666663" version="1.1"><g id="svgg"><path id="path0" d="M270.483 0.650 C 258.081 2.919,244.428 8.919,230.552 18.196 C 228.931 19.280,227.265 20.392,226.851 20.667 C 222.553 23.516,211.268 32.510,207.628 35.986 C 205.101 38.399,200.446 42.586,200.228 42.643 C 200.079 42.682,199.017 41.840,197.868 40.773 C 193.518 36.731,192.732 36.034,189.658 33.480 C 187.921 32.038,186.200 30.578,185.833 30.236 C 184.363 28.865,174.101 21.317,170.500 18.960 C 144.408 1.876,121.471 -3.703,105.167 3.070 C 83.537 12.056,75.131 44.993,82.854 90.500 C 83.669 95.298,86.055 106.566,86.502 107.722 C 86.679 108.181,86.204 108.432,83.775 109.161 C 73.540 112.235,64.233 115.657,55.000 119.742 C 52.347 120.916,43.731 125.284,42.351 126.156 C 41.615 126.620,40.932 127.000,40.833 127.000 C 40.081 127.000,28.521 134.965,25.013 137.900 C -7.194 164.849,-1.455 194.963,40.833 220.921 C 51.777 227.638,74.280 237.194,85.417 239.853 C 86.508 240.114,86.493 239.935,85.689 243.079 C 78.612 270.751,78.153 300.675,84.512 319.871 C 96.595 356.352,134.873 356.942,182.167 321.375 C 185.996 318.495,191.818 313.570,197.333 308.542 C 201.045 305.159,200.581 305.174,203.894 308.333 C 205.335 309.708,207.556 311.733,208.828 312.833 C 210.100 313.933,211.747 315.363,212.487 316.010 C 213.228 316.657,214.583 317.777,215.500 318.499 C 216.417 319.220,217.242 319.894,217.333 319.996 C 217.425 320.099,219.300 321.536,221.500 323.190 C 279.507 366.806,320.362 351.367,320.356 285.833 C 320.354 271.563,317.990 252.064,315.001 241.669 C 314.409 239.609,314.549 239.078,315.750 238.823 C 323.549 237.166,346.054 227.803,356.845 221.727 C 392.014 201.923,404.240 176.223,389.222 153.667 C 387.123 150.514,386.905 150.213,385.365 148.333 C 372.849 133.058,347.329 118.648,316.583 109.495 C 314.979 109.017,313.667 108.566,313.667 108.493 C 313.667 108.420,314.128 106.298,314.691 103.778 C 320.729 76.775,321.333 49.500,316.286 31.833 C 309.356 7.577,293.102 -3.489,270.483 0.650 M284.500 17.387 C 302.401 21.297,307.909 58.048,297.356 103.167 C 297.074 104.370,297.660 104.405,289.296 102.688 C 275.472 99.852,251.787 96.333,246.514 96.333 C 245.156 96.333,245.545 96.744,241.149 90.667 C 239.226 88.008,237.469 85.608,237.243 85.333 C 237.018 85.058,235.939 83.633,234.847 82.167 C 229.969 75.620,220.073 63.726,214.417 57.612 C 211.963 54.959,211.991 55.091,213.583 53.688 C 215.143 52.312,221.108 46.898,221.333 46.653 C 221.425 46.553,222.775 45.415,224.333 44.124 C 247.986 24.532,270.798 14.395,284.500 17.387 M130.333 18.610 C 142.433 21.830,154.538 28.145,169.000 38.780 C 170.742 40.061,172.242 41.201,172.333 41.313 C 172.425 41.425,173.175 42.036,174.000 42.670 C 174.825 43.305,175.668 43.976,175.873 44.162 C 176.078 44.348,177.052 45.175,178.036 46.000 C 179.021 46.825,181.170 48.700,182.812 50.167 C 184.455 51.633,186.294 53.273,186.899 53.811 C 188.329 55.082,188.497 54.697,184.621 59.044 C 179.265 65.051,174.805 70.246,172.497 73.167 C 171.773 74.083,171.027 75.004,170.840 75.213 C 170.653 75.422,170.275 75.876,170.000 76.223 C 169.725 76.569,168.961 77.523,168.303 78.343 C 166.499 80.589,162.201 86.291,158.510 91.333 C 154.581 96.701,155.248 96.196,151.717 96.473 C 140.277 97.367,105.342 102.925,103.326 104.171 C 103.086 104.319,100.893 94.485,99.682 87.833 C 93.613 54.491,98.332 25.463,110.821 19.315 C 115.658 16.933,123.031 16.667,130.333 18.610 M205.442 73.250 C 212.161 80.946,222.247 93.357,222.621 94.390 C 222.699 94.608,222.060 94.632,220.787 94.459 C 218.252 94.115,181.770 94.117,179.211 94.461 L 177.255 94.724 178.209 93.446 C 178.734 92.742,179.243 92.092,179.341 92.000 C 179.439 91.908,180.563 90.483,181.838 88.833 C 184.583 85.284,184.560 85.312,187.333 82.008 C 191.634 76.885,193.963 74.148,194.890 73.130 C 195.409 72.559,196.795 71.022,197.970 69.713 C 199.146 68.404,200.145 67.333,200.191 67.333 C 200.238 67.333,202.600 69.996,205.442 73.250 M223.833 111.655 C 227.133 111.831,231.115 112.072,232.681 112.192 L 235.528 112.408 238.869 117.454 C 243.196 123.988,254.000 141.399,254.000 141.837 C 254.000 141.921,254.428 142.705,254.952 143.578 C 258.507 149.514,264.124 159.856,269.081 169.597 L 271.167 173.694 267.570 180.764 C 258.510 198.570,249.271 214.567,238.810 230.556 L 235.720 235.279 233.944 235.476 C 222.269 236.771,190.707 236.919,168.807 235.780 L 164.781 235.571 160.782 229.535 C 149.648 212.733,139.790 195.669,131.038 178.051 L 128.993 173.935 132.842 166.274 C 136.718 158.558,141.387 149.844,144.381 144.740 C 145.271 143.222,146.000 141.916,146.000 141.839 C 146.000 141.224,163.148 113.924,164.458 112.453 C 164.575 112.323,177.056 111.582,183.333 111.334 C 191.646 111.004,215.102 111.191,223.833 111.655 M142.333 114.850 C 142.333 114.950,141.228 116.788,139.877 118.933 C 136.103 124.925,128.620 137.634,126.000 142.500 C 125.210 143.967,123.704 146.757,122.653 148.702 C 121.602 150.646,120.640 152.558,120.515 152.952 C 120.141 154.130,119.893 153.812,118.531 150.416 C 112.954 136.504,107.630 121.234,108.171 120.700 C 109.123 119.759,142.333 114.071,142.333 114.850 M268.333 116.201 C 272.458 116.830,276.583 117.493,277.500 117.674 C 284.393 119.037,292.138 120.693,292.278 120.834 C 292.445 121.000,292.080 122.143,289.086 130.833 C 287.495 135.453,282.679 148.035,281.091 151.720 L 280.135 153.940 278.566 150.887 C 274.685 143.329,265.368 127.203,259.715 118.260 C 258.588 116.477,257.667 114.931,257.667 114.822 C 257.667 114.592,258.420 114.689,268.333 116.201 M98.850 146.919 C 101.577 154.013,104.370 160.907,106.246 165.167 C 108.425 170.118,108.744 170.830,109.373 172.146 C 110.222 173.923,110.356 173.419,107.059 180.861 C 101.516 193.374,96.679 206.047,92.343 219.417 C 91.585 221.754,90.824 223.667,90.652 223.667 C 89.844 223.667,76.247 219.038,71.453 217.131 C 54.120 210.236,34.282 197.336,27.932 188.833 C 23.414 182.782,20.855 175.229,21.762 170.623 C 24.947 154.455,50.555 137.158,88.485 125.553 L 91.136 124.742 93.729 132.540 C 95.155 136.829,97.459 143.300,98.850 146.919 M317.236 127.623 C 350.226 138.537,373.293 154.310,377.928 169.123 C 383.072 185.564,356.416 207.672,315.167 221.177 L 309.833 222.923 308.062 217.711 C 305.440 209.994,300.201 196.123,298.163 191.500 C 297.921 190.950,296.975 188.775,296.061 186.667 C 295.148 184.558,293.433 180.728,292.252 178.155 L 290.103 173.478 290.719 172.155 C 296.822 159.052,302.081 145.810,307.029 131.083 C 308.153 127.737,309.125 125.000,309.189 125.000 C 309.253 125.000,312.874 126.181,317.236 127.623 M195.793 138.676 C 169.819 141.935,156.399 171.415,170.987 193.167 C 185.400 214.657,218.194 213.202,230.619 190.521 C 244.349 165.459,223.983 135.139,195.793 138.676 M281.417 195.750 C 287.125 209.537,288.301 212.612,291.655 222.518 L 293.242 227.202 288.204 228.261 C 280.139 229.956,268.631 231.899,261.167 232.827 C 260.250 232.940,259.009 233.119,258.408 233.222 L 257.316 233.411 259.032 230.622 C 259.975 229.088,261.581 226.483,262.600 224.833 C 263.619 223.183,265.452 220.108,266.674 218.000 C 267.895 215.892,269.669 212.833,270.614 211.202 C 271.560 209.572,272.333 208.186,272.333 208.124 C 272.333 208.061,272.767 207.295,273.298 206.422 C 274.312 204.751,276.808 200.153,278.910 196.083 C 280.419 193.160,280.349 193.170,281.417 195.750 M121.961 197.753 C 126.945 207.235,137.611 225.542,141.518 231.319 C 143.295 233.946,143.742 233.743,137.826 232.999 C 127.398 231.687,108.311 228.422,107.742 227.853 C 107.528 227.640,111.701 214.993,113.743 209.667 C 115.191 205.889,118.805 196.743,119.440 195.250 C 119.983 193.972,119.962 193.951,121.961 197.753 M298.128 244.250 C 298.440 245.308,300.942 257.440,301.479 260.500 C 304.213 276.100,303.757 300.305,300.519 311.418 C 298.369 318.796,292.501 326.957,287.768 329.150 C 275.505 334.832,252.146 325.910,227.333 306.065 C 224.006 303.404,212.667 293.403,212.667 293.129 C 212.667 293.058,212.929 292.729,213.250 292.397 C 213.571 292.066,214.658 290.834,215.667 289.660 C 216.675 288.485,218.554 286.319,219.842 284.846 C 221.130 283.372,222.555 281.705,223.008 281.141 C 223.462 280.576,225.666 277.840,227.906 275.059 C 233.352 268.298,244.301 253.513,245.143 251.784 C 245.156 251.757,247.642 251.489,250.667 251.189 C 264.670 249.800,282.056 247.075,294.333 244.347 C 297.914 243.551,297.921 243.551,298.128 244.250 M109.333 245.629 C 123.426 248.358,141.419 250.891,151.294 251.535 C 155.115 251.785,155.446 251.964,157.512 254.895 C 163.693 263.665,173.174 275.568,181.833 285.431 C 184.400 288.354,186.989 291.315,187.588 292.012 L 188.675 293.277 184.921 296.694 C 182.856 298.573,180.492 300.730,179.667 301.488 C 169.770 310.577,154.580 320.180,141.167 325.828 C 139.150 326.678,137.050 327.574,136.500 327.820 C 129.339 331.023,120.543 331.460,112.601 329.007 C 96.994 324.186,92.242 286.024,102.338 246.579 C 102.902 244.376,102.960 244.277,103.582 244.458 C 103.903 244.552,106.492 245.078,109.333 245.629 M221.685 255.250 C 219.932 257.632,218.289 259.761,214.509 264.554 C 212.230 267.444,204.385 276.720,201.913 279.449 L 200.658 280.833 199.246 279.331 C 198.469 278.505,196.858 276.713,195.667 275.348 C 194.475 273.984,192.898 272.185,192.162 271.350 C 188.894 267.644,184.507 262.268,180.391 256.926 L 177.637 253.351 193.235 253.528 C 205.609 253.669,219.711 253.442,222.920 253.051 C 223.152 253.023,222.596 254.012,221.685 255.250 " stroke="none" fill="#64dcfc" fill-rule="evenodd"></path><path id="path1" d="" stroke="none" fill="#68dcfc" fill-rule="evenodd"></path><path id="path2" d="" stroke="none" fill="#68dcfc" fill-rule="evenodd"></path><path id="path3" d="" stroke="none" fill="#68dcfc" fill-rule="evenodd"></path><path id="path4" d="" stroke="none" fill="#68dcfc" fill-rule="evenodd"></path></g></svg>