<svg xmlns="http://www.w3.org/2000/svg" enable-background="new 0 0 24 24" viewBox="0 0 24 24"><path fill="#303c42" d="M18.94,1.763c-0.045-0.083-0.113-0.153-0.196-0.199C18.631,1.5,15.914,0,12,0S5.369,1.5,5.255,1.564   C5.172,1.61,5.104,1.68,5.059,1.763C4.976,1.919,3,5.626,3,8.5V12c0,1.111,1.037,5.226,2.601,7.301C7.951,22.419,10.104,24,12,24   s4.049-1.581,6.399-4.699C19.963,17.226,21,13.111,21,12V8.5C21,5.626,19.024,1.919,18.94,1.763z"/><path fill="#fff" d="M14.043,12.5C14.281,12.297,15.108,12,16,12c1,0,1,0.376,1,0.5s0,0.5-1,0.5   C15.108,13,14.281,12.703,14.043,12.5z"/><path fill="#5c6671" d="M14.406,13.75c0.372,0.68,1,1.443,1.923,2.058l0.015-0.025c0.437-0.735,0.878-1.485,1.197-2.253   C17.249,13.793,16.782,14,16,14C15.592,14,14.976,13.922,14.406,13.75z M17.13,6.121c-1.01,0.303-2.025,0.763-2.176,1.09   c-0.268,0.577-0.659,2.709-0.846,4.137C14.748,11.101,15.519,11,16,11c1.398,0,1.824,0.651,1.95,1.123   C17.981,11.917,18,11.709,18,11.5C18,10.13,17.391,7.278,17.13,6.121z"/><path fill="#fff" d="M7,12.5C7,12.376,7,12,8,12c0.892,0,1.719,0.297,1.957,0.5C9.719,12.703,8.892,13,8,13   C7,13,7,12.624,7,12.5z"/><path fill="#5c6671" d="M6.46,13.531c0.319,0.768,0.76,1.517,1.197,2.253l0.015,0.025c0.923-0.615,1.551-1.378,1.923-2.058   C9.024,13.922,8.408,14,8,14C7.218,14,6.751,13.793,6.46,13.531z M9.893,11.348C9.706,9.92,9.314,7.788,9.047,7.211   C8.895,6.883,7.88,6.424,6.871,6.121C6.61,7.278,6,10.131,6,11.5c0,0.209,0.02,0.417,0.05,0.623C6.176,11.651,6.602,11,8,11   C8.481,11,9.252,11.101,9.893,11.348z"/><linearGradient id="a" x1="13.833" x2="18.386" y1="14.386" y2="12.263" gradientTransform="matrix(1 0 0 -1 0 24)" gradientUnits="userSpaceOnUse"><stop offset="0" stop-color="#fff" stop-opacity=".2"/><stop offset="1" stop-color="#fff" stop-opacity="0"/></linearGradient><path fill="url(#a)" d="M14.406,13.75c0.372,0.68,1,1.443,1.923,2.058l0.015-0.025   c0.437-0.735,0.878-1.485,1.197-2.253C17.249,13.793,16.782,14,16,14C15.592,14,14.976,13.922,14.406,13.75z M17.13,6.121   c-1.01,0.303-2.025,0.763-2.176,1.09c-0.268,0.577-0.659,2.709-0.846,4.137C14.748,11.101,15.519,11,16,11   c1.398,0,1.824,0.651,1.95,1.123C17.981,11.917,18,11.709,18,11.5C18,10.13,17.391,7.278,17.13,6.121z"/><linearGradient id="b" x1="5.111" x2="10.271" y1="14.104" y2="11.698" gradientTransform="matrix(1 0 0 -1 0 24)" gradientUnits="userSpaceOnUse"><stop offset="0" stop-color="#fff" stop-opacity=".2"/><stop offset="1" stop-color="#fff" stop-opacity="0"/></linearGradient><path fill="url(#b)" d="M6.46,13.531c0.319,0.768,0.76,1.517,1.197,2.253l0.015,0.025   c0.923-0.615,1.551-1.378,1.923-2.058C9.024,13.922,8.408,14,8,14C7.218,14,6.751,13.793,6.46,13.531z M9.893,11.348   C9.706,9.92,9.314,7.788,9.047,7.211C8.895,6.883,7.88,6.424,6.871,6.121C6.61,7.278,6,10.131,6,11.5   c0,0.209,0.02,0.417,0.05,0.623C6.176,11.651,6.602,11,8,11C8.481,11,9.252,11.101,9.893,11.348z"/><path fill="#d32f2f" d="M6.399,18.699C4.969,16.802,4,12.876,4,12V8.5c0-1.758,0.864-3.959,1.439-5.229   c0.229,0.777,0.443,1.716,0.549,2.222C5.83,6.167,5,9.789,5,11.5c0,1.772,0.914,3.309,1.797,4.794l0.24,0.406l0.317,3.182   C7.04,19.515,6.723,19.128,6.399,18.699z"/><path fill="#e53935" d="M8.478,21.08l-0.432-4.338C9.96,15.537,11,13.696,11,12.5c0-0.925-0.593-4.733-1.046-5.71   C9.549,5.916,7.796,5.335,6.926,5.095c-0.133-0.618-0.444-1.98-0.777-2.856C7.011,1.845,9.191,1,12,1s4.989,0.846,5.851,1.239   c-0.333,0.876-0.644,2.238-0.777,2.856c-0.87,0.24-2.623,0.821-3.028,1.695C13.593,7.767,13,11.575,13,12.5   c0,1.196,1.04,3.037,2.953,4.241l-0.432,4.338C14.217,22.335,13.021,23,12,23S9.783,22.335,8.478,21.08z"/><path d="M12,22.122c-1.048,0-2.267-0.614-3.594-1.765l0.072,0.723   C9.783,22.335,10.979,23,12,23s2.217-0.665,3.522-1.92l0.072-0.723C14.267,21.508,13.048,22.122,12,22.122z" enable-background="new" opacity=".1"/><path fill="#fff" d="M6.899 19.199C5.469 17.302 4.5 13.376 4.5 12.5V9c0-1.538.661-3.413 1.211-4.709-.084-.34-.176-.692-.272-1.019C4.864 4.541 4 6.742 4 8.5V12c0 .876.969 4.802 2.399 6.699.323.429.641.816.955 1.183l-.012-.116C7.196 19.584 7.048 19.397 6.899 19.199zM12.176 1.5c2.462 0 4.452.581 5.582 1.003.031-.091.062-.182.094-.265C16.989 1.846 14.809 1 12 1S7.011 1.845 6.149 2.239c.045.12.09.249.135.384C7.331 2.201 9.47 1.5 12.176 1.5z" enable-background="new" opacity=".2"/><path fill="#d32f2f" d="M20,12c0,0.876-0.969,4.802-2.399,6.699c-0.323,0.429-0.641,0.816-0.955,1.183l0.317-3.182   l0.24-0.406C18.086,14.809,19,13.272,19,11.5c0-1.71-0.829-5.33-0.988-6.006c0.105-0.507,0.319-1.445,0.549-2.224   C19.136,4.54,20,6.739,20,8.5V12z"/><path d="M18.561,3.271c-0.035,0.12-0.069,0.247-0.103,0.372   c0.52,1.273,1.084,2.976,1.084,4.399v3.5c0,0.876-0.969,4.802-2.399,6.699c-0.128,0.17-0.255,0.33-0.382,0.488l-0.115,1.153   c0.314-0.367,0.631-0.754,0.955-1.183C19.031,16.802,20,12.876,20,12V8.5C20,6.739,19.136,4.54,18.561,3.271z" enable-background="new" opacity=".1"/><linearGradient id="c" x1="2.587" x2="20.445" y1="16.987" y2="8.659" gradientTransform="matrix(1 0 0 -1 0 24)" gradientUnits="userSpaceOnUse"><stop offset="0" stop-color="#fff" stop-opacity=".2"/><stop offset="1" stop-color="#fff" stop-opacity="0"/></linearGradient><path fill="url(#c)" d="M18.94,1.763c-0.045-0.083-0.113-0.153-0.196-0.199C18.631,1.5,15.914,0,12,0   S5.369,1.5,5.255,1.564C5.172,1.61,5.104,1.68,5.059,1.763C4.976,1.919,3,5.626,3,8.5V12c0,1.111,1.037,5.226,2.601,7.301   C7.951,22.419,10.104,24,12,24s4.049-1.581,6.399-4.699C19.963,17.226,21,13.111,21,12V8.5C21,5.626,19.024,1.919,18.94,1.763z"/></svg>