<svg xmlns="http://www.w3.org/2000/svg" enable-background="new 0 0 24 24" viewBox="0 0 24 24"><path fill="#303c42" d="M23.945,20.273l-0.508-0.987C22.022,16.554,21,14.58,21,11c0-4.033-2.86-10-9-10   c-0.133,0-0.26,0.053-0.354,0.146L11.29,1.502C5.847,1.62,3,6.338,3,11c0,3.58-1.022,5.554-2.437,8.286l-0.508,0.987   c-0.064,0.125-0.072,0.272-0.022,0.403c0.049,0.132,0.152,0.236,0.283,0.288c0.08,0.032,2.021,0.776,8.301,0.981   C9.836,22.757,11.026,23,12,23s2.164-0.243,3.385-1.054c6.28-0.206,8.221-0.949,8.301-0.981c0.13-0.052,0.233-0.156,0.283-0.288   C24.018,20.545,24.009,20.398,23.945,20.273z"/><path fill="#fee8d7" d="M6.121,17.373L6.07,17.272C5.984,17.105,5.813,17,5.625,17C4.927,17,4,15.285,4,14.5   c0-0.963,0.233-1.309,0.617-1.502c0.621-0.028,1.472-0.273,2.417-0.665C7.015,12.385,7,12.44,7,12.5C7,12.776,7.224,13,7.5,13   c0,0.551,0.449,1,1,1s1-0.449,1-1s-0.449-1-1-1H7.779c2.42-1.147,5.224-3.117,6.51-5.044c0.781,2.855,3.015,5.928,5.093,6.041   C19.766,13.191,20,13.537,20,14.5c0,0.785-0.927,2.5-1.625,2.5c-0.188,0-0.359,0.105-0.445,0.272l-0.051,0.101   C16.326,20.443,14.348,22,12,22S7.674,20.443,6.121,17.373z"/><path d="M19.382,12.997c-2.078-0.113-4.312-3.186-5.093-6.041   c-0.062,0.093-0.143,0.186-0.212,0.279c0.74,2.773,2.623,5.653,4.383,5.762C18.796,13.191,19,13.537,19,14.5   c0,0.785-0.811,2.5-1.422,2.5c-0.164,0-0.314,0.105-0.39,0.272l-0.044,0.101C15.785,20.443,14.054,22,12,22   c2.348,0,4.326-1.557,5.879-4.627l0.051-0.101C18.016,17.105,18.188,17,18.375,17C19.073,17,20,15.285,20,14.5   C20,13.536,19.766,13.191,19.382,12.997z" enable-background="new" opacity=".1"/><path fill="#fff" d="M6.856,17.373l-0.044-0.101C6.736,17.105,6.586,17,6.422,17   C5.811,17,5,15.285,5,14.5c0-0.963,0.204-1.309,0.54-1.502c0.4-0.02,0.911-0.16,1.482-0.389C7.014,12.573,7,12.539,7,12.5   c0-0.06,0.015-0.115,0.034-0.168c-0.945,0.393-1.796,0.638-2.417,0.665C4.233,13.191,4,13.537,4,14.5C4,15.285,4.927,17,5.625,17   c0.188,0,0.359,0.105,0.445,0.272l0.051,0.101C7.674,20.443,9.652,22,12,22C9.946,22,8.215,20.443,6.856,17.373z" enable-background="new" opacity=".2"/><path fill="#303c42" d="M16.5,13c0.276,0,0.5-0.224,0.5-0.5S16.776,12,16.5,12h-1c-0.551,0-1,0.449-1,1s0.449,1,1,1   C16.051,14,16.5,13.551,16.5,13z"/><path fill="#ffee58" d="M11.5 2.5c.133 0 .26-.053.354-.146l.351-.351C17.521 2.135 20 7.416 20 11c0 .433.019.839.046 1.233-.105-.07-.218-.135-.347-.191C19.636 12.014 19.568 12 19.5 12 17.649 12 15 7.878 15 5c0-.276-.224-.5-.5-.5S14 4.724 14 5c0 2.581-7.007 7-9.5 7-.068 0-.136.014-.199.042-.129.056-.242.122-.347.191C3.981 11.839 4 11.433 4 11 4 6.906 6.347 2.5 11.5 2.5zM1.451 19.746c.725-1.4 1.37-2.652 1.831-4.046.375.973 1.101 2.049 2.018 2.263.65 1.255 1.347 2.207 2.055 2.931-3.455-.17-5.31-.509-6.131-.706L1.451 19.746z"/><path fill="#fff" d="M4.726 11.726c0-4.094 2.347-8.5 7.5-8.5.133 0 .26-.053.354-.146l.351-.351c1.919.048 3.463.772 4.659 1.839-1.27-1.46-3.055-2.507-5.385-2.565l-.351.351C11.76 2.448 11.633 2.5 11.5 2.5 6.347 2.5 4 6.906 4 11c0 .433-.019.839-.046 1.233.105-.07.218-.135.347-.191C4.364 12.014 4.432 12 4.5 12c.065 0 .145-.015.216-.021C4.718 11.892 4.726 11.815 4.726 11.726zM3.864 16.814c-.24-.35-.437-.74-.582-1.114-.461 1.394-1.106 2.646-1.831 4.046l-.227.441c.237.057.573.126.996.199C2.858 19.154 3.426 18.025 3.864 16.814z" enable-background="new" opacity=".2"/><path fill="#ffee58" d="M16.645,20.893c0.708-0.724,1.406-1.676,2.055-2.931c0.917-0.214,1.642-1.29,2.018-2.263   c0.461,1.394,1.106,2.646,1.831,4.046l0.227,0.441C21.953,20.384,20.099,20.723,16.645,20.893z"/><linearGradient id="a" x1="18.401" x2="21.673" y1="5.984" y2="2.712" gradientTransform="matrix(1 0 0 -1 0 24)" gradientUnits="userSpaceOnUse"><stop offset="0" stop-opacity=".1"/><stop offset=".07" stop-opacity=".093"/><stop offset="1" stop-opacity="0"/></linearGradient><path fill="url(#a)" d="M16.645,20.893c0.708-0.724,1.406-1.676,2.055-2.931c0.917-0.214,1.642-1.29,2.018-2.263   c0.461,1.394,1.106,2.646,1.831,4.046l0.227,0.441C21.953,20.384,20.099,20.723,16.645,20.893z"/><linearGradient id="b" x1="2.784" x2="24.672" y1="15.034" y2="4.828" gradientTransform="matrix(1 0 0 -1 0 24)" gradientUnits="userSpaceOnUse"><stop offset="0" stop-color="#fff" stop-opacity=".2"/><stop offset="1" stop-color="#fff" stop-opacity="0"/></linearGradient><path fill="url(#b)" d="M23.945,20.273l-0.508-0.987C22.022,16.554,21,14.58,21,11c0-4.033-2.86-10-9-10   c-0.133,0-0.26,0.053-0.354,0.146L11.29,1.502C5.847,1.62,3,6.338,3,11c0,3.58-1.022,5.554-2.437,8.286l-0.508,0.987   c-0.064,0.125-0.072,0.272-0.022,0.403c0.049,0.132,0.152,0.236,0.283,0.288c0.08,0.032,2.021,0.776,8.301,0.981   C9.836,22.757,11.026,23,12,23s2.164-0.243,3.385-1.054c6.28-0.206,8.221-0.949,8.301-0.981c0.13-0.052,0.233-0.156,0.283-0.288   C24.018,20.545,24.009,20.398,23.945,20.273z"/></svg>